<svg xmlns="http://www.w3.org/2000/svg" viewBox="0 0 32 32">
  <rect width="32" height="32" rx="8" fill="#0d1120"/>
  <!-- Calculadora -->
  <rect x="4" y="3" width="16" height="22" rx="2" fill="none" stroke="#4a7cff" stroke-width="1.5"/>
  <rect x="6" y="5" width="12" height="6" rx="1" fill="#4a7cff" opacity="0.3"/>
  <text x="17" y="10" text-anchor="end" font-size="4.5" fill="#60b8ff" font-family="monospace" font-weight="bold">R$</text>
  <!-- Botões -->
  <rect x="6" y="13" width="3.5" height="3" rx="0.6" fill="#7b4fff" opacity="0.85"/>
  <rect x="10.5" y="13" width="3.5" height="3" rx="0.6" fill="#7b4fff" opacity="0.85"/>
  <rect x="15" y="13" width="3.5" height="3" rx="0.6" fill="#4a7cff" opacity="0.85"/>
  <rect x="6" y="17" width="3.5" height="3" rx="0.6" fill="#7b4fff" opacity="0.85"/>
  <rect x="10.5" y="17" width="3.5" height="3" rx="0.6" fill="#7b4fff" opacity="0.85"/>
  <rect x="15" y="17" width="3.5" height="3" rx="0.6" fill="#4a7cff" opacity="0.85"/>
  <rect x="6" y="21" width="3.5" height="3" rx="0.6" fill="#7b4fff" opacity="0.85"/>
  <rect x="10.5" y="21" width="3.5" height="3" rx="0.6" fill="#7b4fff" opacity="0.85"/>
  <rect x="15" y="21" width="5.5" height="3" rx="0.6" fill="#22c55e" opacity="0.9"/>
  <!-- Círculo ? -->
  <circle cx="26" cy="10" r="6" fill="url(#g)"/>
  <defs>
    <linearGradient id="g" x1="20" y1="4" x2="32" y2="16">
      <stop offset="0%" stop-color="#4a7cff"/>
      <stop offset="100%" stop-color="#7b4fff"/>
    </linearGradient>
  </defs>
  <text x="26" y="13.5" text-anchor="middle" font-size="9" fill="white" font-family="Georgia,serif" font-weight="bold">?</text>
</svg>
